<?xml version="1.0" encoding="UTF-8"?>
<!DOCTYPE svg PUBLIC "-//W3C//DTD SVG 1.1//EN" "http://www.w3.org/Graphics/SVG/1.1/DTD/svg11.dtd">
<!-- Creator: CorelDRAW 2018 (64 Bit) -->
<svg xmlns="http://www.w3.org/2000/svg" xml:space="preserve" width="13.822mm" height="13.5996mm" version="1.1" style="shape-rendering:geometricPrecision; text-rendering:geometricPrecision; image-rendering:optimizeQuality; fill-rule:evenodd; clip-rule:evenodd"
viewBox="0 0 153.03 150.57"
 xmlns:xlink="http://www.w3.org/1999/xlink">
 <defs>
  <style type="text/css">
   <![CDATA[
    .fil0 {fill:#D4B465}
   ]]>
  </style>
 </defs>
 <g id="Capa_x0020_1">
  <metadata id="CorelCorpID_0Corel-Layer"/>
  <path class="fil0" d="M-0 27.54l0 94.91c0,15.84 4.58,28.12 20.87,28.12 37.1,0 74.2,0 111.3,0 14.56,0 20.87,-4.35 20.87,-28.12l0 -97.26c0,-12.93 -2.79,-25.19 -18.69,-25.19l-115.21 0c-14.49,0 -19.13,5.97 -19.13,27.54zm114.84 6.48l-22.11 0 -1.73 -3.44c-0.75,-1.5 -2.28,-2.45 -3.96,-2.45 0,0 -0,0 -0,0l-21.06 0c-0.01,0 -0.01,0 -0.02,0 -1.67,0 -3.19,0.95 -3.93,2.45l-1.73 3.44 -22.11 0c-1.63,0 -2.95,1.32 -2.95,2.95l0 5.89c0,1.63 1.32,2.95 2.95,2.95l76.64 0c1.63,0 2.95,-1.32 2.95,-2.95l0 -5.89c0,-1.63 -1.32,-2.95 -2.95,-2.95l0 0zm-69.79 80.14c0.29,4.66 4.16,8.29 8.83,8.29l45.28 0c4.67,0 8.53,-3.63 8.83,-8.29l3.91 -62.45 -70.74 0 3.91 62.45z"/>
 </g>
</svg>
