<?xml version="1.0" encoding="UTF-8"?>
<!DOCTYPE svg PUBLIC "-//W3C//DTD SVG 1.1//EN" "http://www.w3.org/Graphics/SVG/1.1/DTD/svg11.dtd">
<!-- Creator: CorelDRAW 2018 (64 Bit) -->
<svg xmlns="http://www.w3.org/2000/svg" xml:space="preserve" width="7.703mm" height="7.703mm" version="1.1" style="shape-rendering:geometricPrecision; text-rendering:geometricPrecision; image-rendering:optimizeQuality; fill-rule:evenodd; clip-rule:evenodd"
viewBox="0 0 67.63 67.63"
 xmlns:xlink="http://www.w3.org/1999/xlink">
 <defs>
  <style type="text/css">
   <![CDATA[
    .fil0 {fill:#69222B}
   ]]>
  </style>
 </defs>
 <g id="Capa_x0020_1">
  <metadata id="CorelCorpID_0Corel-Layer"/>
  <g id="menu-svgrepo-com.svg">
   <g id="XMLID_240_">
    <path id="XMLID_241_" class="fil0" d="M6.76 13.53l54.1 0c3.73,0 6.76,-3.03 6.76,-6.76 0,-3.73 -3.03,-6.76 -6.76,-6.76l-54.1 0c-3.73,0 -6.76,3.03 -6.76,6.76 0,3.73 3.03,6.76 6.76,6.76z"/>
    <path id="XMLID_242_" class="fil0" d="M60.86 27.05l-54.1 0c-3.73,0 -6.76,3.03 -6.76,6.76 0,3.73 3.03,6.76 6.76,6.76l54.1 0c3.73,0 6.76,-3.03 6.76,-6.76 0,-3.73 -3.03,-6.76 -6.76,-6.76z"/>
    <path id="XMLID_243_" class="fil0" d="M60.86 54.1l-54.1 0c-3.73,0 -6.76,3.03 -6.76,6.76 0,3.73 3.03,6.76 6.76,6.76l54.1 0c3.73,0 6.76,-3.03 6.76,-6.76 0,-3.73 -3.03,-6.76 -6.76,-6.76z"/>
   </g>
   <g>
   </g>
   <g>
   </g>
   <g>
   </g>
   <g>
   </g>
   <g>
   </g>
   <g>
   </g>
   <g>
   </g>
   <g>
   </g>
   <g>
   </g>
   <g>
   </g>
   <g>
   </g>
   <g>
   </g>
   <g>
   </g>
   <g>
   </g>
   <g>
   </g>
  </g>
 </g>
</svg>
