<?xml version="1.0" encoding="UTF-8"?>
<!DOCTYPE svg PUBLIC "-//W3C//DTD SVG 1.1//EN" "http://www.w3.org/Graphics/SVG/1.1/DTD/svg11.dtd">
<!-- Creator: CorelDRAW 2018 (64 Bit) -->
<svg xmlns="http://www.w3.org/2000/svg" xml:space="preserve" width="9.382mm" height="9.381mm" version="1.1" style="shape-rendering:geometricPrecision; text-rendering:geometricPrecision; image-rendering:optimizeQuality; fill-rule:evenodd; clip-rule:evenodd"
viewBox="0 0 84.93 84.92"
 xmlns:xlink="http://www.w3.org/1999/xlink">
 <defs>
  <style type="text/css">
   <![CDATA[
    .fil0 {fill:#D2B367}
   ]]>
  </style>
 </defs>
 <g id="Capa_x0020_1">
  <metadata id="CorelCorpID_0Corel-Layer"/>
  <g id="big-instagram-logo-svgrepo-com.svg">
   <path class="fil0" d="M74.91 0l-64.59 0c-5.57,0 -10.31,5.23 -10.31,10.78l0 64.64c0,5.55 4.75,9.5 10.31,9.5l64.59 0c5.57,0 10.02,-3.96 10.02,-9.5l0 -64.64c0,-5.55 -4.45,-10.78 -10.02,-10.78zm-2 12.13c1.61,0 2.92,1.31 2.92,2.92l0 9.33c0,1.61 -1.31,2.92 -2.92,2.92l-9.34 0c-1.61,0 -2.92,-1.31 -2.92,-2.92l0 -9.33c0,-1.61 1.31,-2.92 2.92,-2.92l9.34 0zm-30.2 14.81c9,0 16.3,7.28 16.3,16.26 0,8.98 -7.29,16.26 -16.3,16.26 -9,0 -16.3,-7.28 -16.3,-16.26 0,-8.98 7.3,-16.26 16.3,-16.26zm33.12 46.31c0,1.3 -1.39,2.58 -2.69,2.58l-60.84 0c-1.31,0 -3.19,-1.27 -3.19,-2.58l0 -36.85 8.75 0c-0.6,3.03 -0.92,4.45 -0.92,6.8 0,14.18 11.56,25.71 25.78,25.71 14.22,0 25.78,-11.54 25.78,-25.72 0,-2.35 -0.32,-3.76 -0.91,-6.8l8.25 0 0 36.85z"/>
   <g>
   </g>
   <g>
   </g>
   <g>
   </g>
   <g>
   </g>
   <g>
   </g>
   <g>
   </g>
   <g>
   </g>
   <g>
   </g>
   <g>
   </g>
   <g>
   </g>
   <g>
   </g>
   <g>
   </g>
   <g>
   </g>
   <g>
   </g>
   <g>
   </g>
  </g>
 </g>
</svg>
