<?xml version="1.0" encoding="UTF-8"?>
<!DOCTYPE svg PUBLIC "-//W3C//DTD SVG 1.1//EN" "http://www.w3.org/Graphics/SVG/1.1/DTD/svg11.dtd">
<!-- Creator: CorelDRAW 2018 (64 Bit) -->
<svg xmlns="http://www.w3.org/2000/svg" xml:space="preserve" width="11.3606mm" height="9.3012mm" version="1.1" style="shape-rendering:geometricPrecision; text-rendering:geometricPrecision; image-rendering:optimizeQuality; fill-rule:evenodd; clip-rule:evenodd"
viewBox="0 0 188.29 154.16"
 xmlns:xlink="http://www.w3.org/1999/xlink">
 <defs>
  <style type="text/css">
   <![CDATA[
    .fil0 {fill:#D2B367}
   ]]>
  </style>
 </defs>
 <g id="Capa_x0020_1">
  <metadata id="CorelCorpID_0Corel-Layer"/>
  <g id="twitter-svgrepo-com.svg">
   <g id="XMLID_826_">
    <path id="XMLID_827_" class="fil0" d="M184.02 17.79c-2.96,1.31 -6,2.42 -9.11,3.32 3.68,-4.16 6.48,-9.06 8.2,-14.41 0.38,-1.2 -0.01,-2.51 -1,-3.3 -0.99,-0.79 -2.36,-0.88 -3.44,-0.24 -6.6,3.91 -13.72,6.73 -21.19,8.37 -7.52,-7.35 -17.73,-11.53 -28.29,-11.53 -22.29,0 -40.42,18.13 -40.42,40.42 0,1.76 0.11,3.5 0.33,5.22 -27.66,-2.43 -53.37,-16.02 -71.03,-37.68 -0.63,-0.77 -1.6,-1.19 -2.59,-1.11 -0.99,0.08 -1.89,0.64 -2.39,1.5 -3.58,6.14 -5.47,13.17 -5.47,20.32 0,9.74 3.48,18.98 9.62,26.2 -1.87,-0.65 -3.68,-1.46 -5.41,-2.41 -0.93,-0.52 -2.06,-0.51 -2.98,0.02 -0.92,0.53 -1.5,1.5 -1.53,2.57 -0,0.18 -0,0.36 -0,0.54 0,14.54 7.82,27.63 19.79,34.76 -1.03,-0.1 -2.06,-0.25 -3.08,-0.45 -1.05,-0.2 -2.13,0.17 -2.84,0.97 -0.71,0.8 -0.95,1.92 -0.62,2.94 4.43,13.82 15.83,23.99 29.61,27.09 -11.43,7.16 -24.5,10.91 -38.22,10.91 -2.86,0 -5.74,-0.17 -8.56,-0.5 -1.4,-0.17 -2.74,0.66 -3.22,1.99 -0.48,1.33 0.03,2.82 1.22,3.58 17.63,11.3 38.01,17.28 58.94,17.28 41.15,0 66.9,-19.41 81.25,-35.69 17.9,-20.3 28.16,-47.17 28.16,-73.72 0,-1.11 -0.02,-2.23 -0.05,-3.35 7.06,-5.32 13.14,-11.76 18.08,-19.15 0.75,-1.12 0.67,-2.61 -0.2,-3.64 -0.87,-1.03 -2.32,-1.37 -3.56,-0.82z"/>
   </g>
   <g>
   </g>
   <g>
   </g>
   <g>
   </g>
   <g>
   </g>
   <g>
   </g>
   <g>
   </g>
   <g>
   </g>
   <g>
   </g>
   <g>
   </g>
   <g>
   </g>
   <g>
   </g>
   <g>
   </g>
   <g>
   </g>
   <g>
   </g>
   <g>
   </g>
  </g>
 </g>
</svg>
