<?xml version="1.0" encoding="UTF-8"?>
<!DOCTYPE svg PUBLIC "-//W3C//DTD SVG 1.1//EN" "http://www.w3.org/Graphics/SVG/1.1/DTD/svg11.dtd">
<!-- Creator: CorelDRAW 2018 (64 Bit) -->
<svg xmlns="http://www.w3.org/2000/svg" xml:space="preserve" width="13.822mm" height="13.5996mm" version="1.1" style="shape-rendering:geometricPrecision; text-rendering:geometricPrecision; image-rendering:optimizeQuality; fill-rule:evenodd; clip-rule:evenodd"
viewBox="0 0 329.46 324.15"
 xmlns:xlink="http://www.w3.org/1999/xlink">
 <defs>
  <style type="text/css">
   <![CDATA[
    .fil0 {fill:#D4B465}
   ]]>
  </style>
 </defs>
 <g id="Capa_x0020_1">
  <metadata id="CorelCorpID_0Corel-Layer"/>
  <path class="fil0" d="M252.67 136.71l-67.43 -0.01 -0 -62.57c0,-11.83 -9.59,-21.41 -21.41,-21.41 -11.82,0 -21.41,9.59 -21.41,21.41l0 62.57 -65.64 -0c-11.82,0 -21.41,9.59 -21.41,21.41 0,11.82 9.59,21.41 21.41,21.41l65.64 0 0 70.5c0,11.84 9.59,21.41 21.41,21.41 11.83,0 21.41,-9.59 21.41,-21.41l0 -70.51 67.43 0c11.82,0 21.41,-9.58 21.41,-21.4 0.01,-11.83 -9.59,-21.42 -21.41,-21.41zm-252.67 -77.43l0 204.33c0,34.11 9.87,60.54 44.93,60.54 79.87,0 159.74,0 239.6,0 31.35,0 44.93,-9.36 44.93,-60.54l0 -209.38c0,-27.84 -6,-54.24 -40.25,-54.24l-248.03 0c-31.19,0 -41.18,12.84 -41.18,59.28z"/>
 </g>
</svg>
