<?xml version="1.0" encoding="UTF-8"?>
<!DOCTYPE svg PUBLIC "-//W3C//DTD SVG 1.1//EN" "http://www.w3.org/Graphics/SVG/1.1/DTD/svg11.dtd">
<!-- Creator: CorelDRAW 2018 (64 Bit) -->
<svg xmlns="http://www.w3.org/2000/svg" xml:space="preserve" width="6.6704mm" height="7.5822mm" version="1.1" style="shape-rendering:geometricPrecision; text-rendering:geometricPrecision; image-rendering:optimizeQuality; fill-rule:evenodd; clip-rule:evenodd"
viewBox="0 0 45.93 52.21"
 xmlns:xlink="http://www.w3.org/1999/xlink">
 <defs>
  <style type="text/css">
   <![CDATA[
    .fil0 {fill:black}
   ]]>
  </style>
 </defs>
 <g id="Capa_x0020_1">
  <metadata id="CorelCorpID_0Corel-Layer"/>
  <g id="trash-svgrepo-com_x0028_2_x0029_.svg">
   <g>
    <g>
     <g>
      <path class="fil0" d="M40.37 6.5l-10.22 0c-0.36,-3.64 -3.44,-6.5 -7.18,-6.5 -3.74,0 -6.82,2.86 -7.18,6.5l-10.22 0c-3.07,0 -5.56,2.5 -5.56,5.56 0,2.98 2.35,5.41 5.29,5.56l0 27.88c0,3.7 3.01,6.72 6.72,6.72l21.92 0c3.7,0 6.72,-3.01 6.72,-6.72l0 -27.88c2.94,-0.14 5.29,-2.58 5.29,-5.56 0,-3.07 -2.5,-5.56 -5.56,-5.56zm-17.4 -3.08c1.85,0 3.39,1.33 3.73,3.08l-7.46 0c0.34,-1.75 1.88,-3.08 3.73,-3.08zm14.26 42.08c0,1.82 -1.48,3.3 -3.3,3.3l-21.92 0c-1.82,0 -3.3,-1.48 -3.3,-3.3l0 -27.87c1.39,0 27.44,0 28.53,0l0 27.87zm3.14 -31.28c-0.36,0 -34.5,0 -34.81,0 -1.18,0 -2.15,-0.96 -2.15,-2.15 0,-1.18 0.96,-2.15 2.15,-2.15l34.81 0c1.18,0 2.15,0.96 2.15,2.15 0,1.18 -0.96,2.15 -2.15,2.15z"/>
      <path class="fil0" d="M22.97 44.68c0.94,0 1.71,-0.76 1.71,-1.71l0 -19.78c0,-0.94 -0.76,-1.71 -1.71,-1.71 -0.94,0 -1.71,0.76 -1.71,1.71l0 19.78c0,0.94 0.77,1.71 1.71,1.71z"/>
      <path class="fil0" d="M31.78 44.68c0.94,0 1.71,-0.76 1.71,-1.71l0 -19.78c0,-0.94 -0.77,-1.71 -1.71,-1.71 -0.94,0 -1.71,0.76 -1.71,1.71l0 19.78c0,0.94 0.76,1.71 1.71,1.71z"/>
      <path class="fil0" d="M14.15 44.68c0.94,0 1.71,-0.76 1.71,-1.71l0 -19.78c0,-0.94 -0.76,-1.71 -1.71,-1.71 -0.94,0 -1.71,0.76 -1.71,1.71l0 19.78c0,0.94 0.77,1.71 1.71,1.71z"/>
     </g>
    </g>
   </g>
   <g>
   </g>
   <g>
   </g>
   <g>
   </g>
   <g>
   </g>
   <g>
   </g>
   <g>
   </g>
   <g>
   </g>
   <g>
   </g>
   <g>
   </g>
   <g>
   </g>
   <g>
   </g>
   <g>
   </g>
   <g>
   </g>
   <g>
   </g>
   <g>
   </g>
  </g>
 </g>
</svg>
