<?xml version="1.0" encoding="UTF-8"?>
<!DOCTYPE svg PUBLIC "-//W3C//DTD SVG 1.1//EN" "http://www.w3.org/Graphics/SVG/1.1/DTD/svg11.dtd">
<!-- Creator: CorelDRAW 2018 (64 Bit) -->
<svg xmlns="http://www.w3.org/2000/svg" xml:space="preserve" width="34.9182mm" height="30.3899mm" version="1.1" style="shape-rendering:geometricPrecision; text-rendering:geometricPrecision; image-rendering:optimizeQuality; fill-rule:evenodd; clip-rule:evenodd"
viewBox="0 0 1414.48 1231.05"
 xmlns:xlink="http://www.w3.org/1999/xlink">
 <defs>
  <style type="text/css">
   <![CDATA[
    .fil0 {fill:black}
   ]]>
  </style>
 </defs>
 <g id="Capa_x0020_1">
  <metadata id="CorelCorpID_0Corel-Layer"/>
  <g id="shopping-cart-svgrepo-com_x0028_3_x0029_.svg">
   <g>
    <path class="fil0" d="M1405.98 220.52c-7.72,-9.98 -19.63,-15.83 -32.25,-15.83l-1036.79 0 -45.28 -174.19c-4.67,-17.97 -20.89,-30.5 -39.45,-30.5l-211.46 0c-22.51,0 -40.76,18.25 -40.76,40.76 0,22.51 18.25,40.76 40.76,40.76l179.94 -0 45.28 174.19c0,0 0,0 0,0.01l159.66 613.9c4.67,17.96 20.88,30.49 39.44,30.49l748.95 0c18.56,0 34.77,-12.54 39.44,-30.49l159.68 -613.91c3.18,-12.21 0.53,-25.2 -7.19,-35.18zm-765.41 598.08l-143.96 0 -32.02 -123.1 175.98 0 0 123.1zm0 -204.61l-197.18 0 -32.03 -123.18 229.22 0 0 123.18zm0 -204.69l-250.42 0 -32.01 -123.09 282.43 0 0 123.09zm316.5 409.31l-234.99 0 0 -123.1 234.99 0 0 123.1zm0 -204.61l-234.99 0 0 -123.18 234.99 0 0 123.18zm0 -204.69l-234.99 0 0 -123.09 234.99 0 0 123.09zm225.47 409.31l-143.95 0 0 -123.1 175.97 0 -32.02 123.1zm53.22 -204.61l-197.17 0 0 -123.18 229.21 0 -32.04 123.18zm53.24 -204.69l-250.42 0 0 -123.09 282.44 0 -32.02 123.09z"/>
    <path class="fil0" d="M573.21 933.28c-82.09,0 -148.88,66.79 -148.88,148.87 0,82.1 66.79,148.9 148.88,148.9 82.08,0 148.87,-66.8 148.87,-148.9 0,-82.08 -66.78,-148.87 -148.87,-148.87zm0 216.25c-37.14,0 -67.36,-30.23 -67.36,-67.39 0,-37.14 30.22,-67.36 67.36,-67.36 37.14,0 67.36,30.22 67.36,67.36 0,37.16 -30.22,67.39 -67.36,67.39z"/>
    <path class="fil0" d="M1105.93 933.28c-82.08,0 -148.85,66.79 -148.85,148.87 0,82.1 66.77,148.9 148.85,148.9 82.09,0 148.88,-66.8 148.88,-148.9 0,-82.08 -66.79,-148.87 -148.88,-148.87zm0 216.25c-37.13,0 -67.34,-30.23 -67.34,-67.39 0,-37.14 30.21,-67.36 67.34,-67.36 37.15,0 67.36,30.22 67.36,67.36 0,37.16 -30.22,67.39 -67.36,67.39z"/>
   </g>
   <g>
   </g>
   <g>
   </g>
   <g>
   </g>
   <g>
   </g>
   <g>
   </g>
   <g>
   </g>
   <g>
   </g>
   <g>
   </g>
   <g>
   </g>
   <g>
   </g>
   <g>
   </g>
   <g>
   </g>
   <g>
   </g>
   <g>
   </g>
   <g>
   </g>
  </g>
 </g>
</svg>
