<?xml version="1.0" encoding="UTF-8"?>
<!DOCTYPE svg PUBLIC "-//W3C//DTD SVG 1.1//EN" "http://www.w3.org/Graphics/SVG/1.1/DTD/svg11.dtd">
<!-- Creator: CorelDRAW 2018 (64 Bit) -->
<svg xmlns="http://www.w3.org/2000/svg" xml:space="preserve" width="9.2312mm" height="9.2312mm" version="1.1" style="shape-rendering:geometricPrecision; text-rendering:geometricPrecision; image-rendering:optimizeQuality; fill-rule:evenodd; clip-rule:evenodd"
viewBox="0 0 5903.77 5903.77"
 xmlns:xlink="http://www.w3.org/1999/xlink">
 <defs>
  <style type="text/css">
   <![CDATA[
    .fil0 {fill:#D2B367}
   ]]>
  </style>
 </defs>
 <g id="Capa_x0020_1">
  <metadata id="CorelCorpID_0Corel-Layer"/>
  <g id="phone-svgrepo-com.svg">
   <path class="fil0" d="M5903.77 2951.89c0,-387.69 -76.3,-771.48 -224.67,-1129.63 -148.31,-358.15 -365.76,-683.61 -639.87,-957.72 -274.11,-274.11 -599.57,-491.55 -957.72,-639.87 -358.15,-148.37 -741.94,-224.67 -1129.63,-224.67l0 590.3c310.18,0 617.23,61.14 903.68,179.78 286.52,118.7 546.94,292.72 766.18,511.96 219.36,219.24 393.26,479.66 511.89,766.18 118.7,286.45 179.84,593.63 179.84,903.68l590.3 0z"/>
   <path class="fil0" d="M-0 2361.46l0 -1475.94c0,-163.02 132.07,-295.21 295.21,-295.21l1475.94 0c163.02,0 295.09,132.19 295.09,295.21l0 1180.73c0,163.15 -132.07,295.21 -295.09,295.21l-590.43 0c0,1304.23 1057.36,2361.59 2361.59,2361.59l0 -590.43c0,-163.02 132.07,-295.21 295.09,-295.21l1180.86 0c163.02,0 295.21,132.19 295.21,295.21l0 1475.94c0,163.15 -132.19,295.21 -295.21,295.21l-1475.94 0c-1956.37,0 -3542.31,-1585.94 -3542.31,-3542.31z"/>
   <path class="fil0" d="M4588.29 2274.1c88.9,214.89 134.75,445.25 134.75,677.79l-531.4 0c0,-162.76 -32.04,-323.99 -94.27,-474.41 -62.36,-150.49 -153.62,-287.16 -268.8,-402.21 -115.12,-115.25 -251.79,-206.51 -402.21,-268.86 -150.49,-62.23 -311.71,-94.27 -474.48,-94.27l0 -531.4c232.6,0 462.9,45.86 677.79,134.88 214.89,88.96 410.14,219.49 574.57,383.92 164.43,164.43 294.96,359.68 384.05,574.57z"/>
  </g>
 </g>
</svg>
