<?xml version="1.0" encoding="UTF-8"?>
<!DOCTYPE svg PUBLIC "-//W3C//DTD SVG 1.1//EN" "http://www.w3.org/Graphics/SVG/1.1/DTD/svg11.dtd">
<!-- Creator: CorelDRAW 2018 (64 Bit) -->
<svg xmlns="http://www.w3.org/2000/svg" xml:space="preserve" width="10.8032mm" height="10.8032mm" version="1.1" style="shape-rendering:geometricPrecision; text-rendering:geometricPrecision; image-rendering:optimizeQuality; fill-rule:evenodd; clip-rule:evenodd"
viewBox="0 0 125.34 125.34"
 xmlns:xlink="http://www.w3.org/1999/xlink">
 <defs>
  <style type="text/css">
   <![CDATA[
    .fil0 {fill:#69222B}
   ]]>
  </style>
 </defs>
 <g id="Capa_x0020_1">
  <metadata id="CorelCorpID_0Corel-Layer"/>
  <g id="user-svgrepo-com.svg">
   <g>
    <g>
     <g>
      <path class="fil0" d="M62.67 0c-34.64,0 -62.67,28.03 -62.67,62.67 0,34.64 28.03,62.67 62.67,62.67 34.64,0 62.67,-28.03 62.67,-62.67 0,-34.64 -28.03,-62.67 -62.67,-62.67zm0 117.08c-30,0 -54.41,-24.41 -54.41,-54.41 0,-30 24.41,-54.41 54.41,-54.41 30,0 54.41,24.41 54.41,54.41 0,30 -24.41,54.41 -54.41,54.41z"/>
      <path class="fil0" d="M83.11 63.14c-1.65,2.35 -3.54,4.36 -5.71,6.04 6.34,4.58 10.47,12.03 10.47,20.43 0,3.79 -10.35,8.02 -25.2,8.02 -14.85,0 -25.2,-4.23 -25.2,-8.02 0,-8.4 4.13,-15.85 10.47,-20.43 -2.16,-1.67 -4.05,-3.67 -5.71,-6.04 -7.92,6.12 -13.02,15.71 -13.02,26.47 0,3.93 2.06,9.38 11.87,12.99 5.77,2.12 13.43,3.29 21.59,3.29 8.16,0 15.83,-1.17 21.59,-3.29 9.81,-3.61 11.87,-9.06 11.87,-12.99 0,-10.76 -5.11,-20.35 -13.02,-26.47z"/>
      <path class="fil0" d="M62.67 66.02c10.06,0 17.81,-9.73 17.81,-21.22 0,-11.5 -7.75,-21.22 -17.81,-21.22 -10.06,0 -17.81,9.72 -17.81,21.22 0,11.5 7.75,21.22 17.81,21.22zm0 -35.72c6.11,0 11.08,6.51 11.08,14.5 0,8 -4.97,14.5 -11.08,14.5 -6.11,0 -11.08,-6.51 -11.08,-14.5 0,-8 4.97,-14.5 11.08,-14.5z"/>
     </g>
    </g>
   </g>
   <g>
   </g>
   <g>
   </g>
   <g>
   </g>
   <g>
   </g>
   <g>
   </g>
   <g>
   </g>
   <g>
   </g>
   <g>
   </g>
   <g>
   </g>
   <g>
   </g>
   <g>
   </g>
   <g>
   </g>
   <g>
   </g>
   <g>
   </g>
   <g>
   </g>
  </g>
 </g>
</svg>
