<?xml version="1.0" encoding="UTF-8"?>
<!DOCTYPE svg PUBLIC "-//W3C//DTD SVG 1.1//EN" "http://www.w3.org/Graphics/SVG/1.1/DTD/svg11.dtd">
<!-- Creator: CorelDRAW 2018 (64 Bit) -->
<svg xmlns="http://www.w3.org/2000/svg" xml:space="preserve" width="13.822mm" height="13.5989mm" version="1.1" style="shape-rendering:geometricPrecision; text-rendering:geometricPrecision; image-rendering:optimizeQuality; fill-rule:evenodd; clip-rule:evenodd"
viewBox="0 0 197.12 193.94"
 xmlns:xlink="http://www.w3.org/1999/xlink">
 <defs>
  <style type="text/css">
   <![CDATA[
    .fil0 {fill:#D4B465}
   ]]>
  </style>
 </defs>
 <g id="Capa_x0020_1">
  <metadata id="CorelCorpID_0Corel-Layer"/>
  <path class="fil0" d="M0.01 35.47l0 122.25c0,20.41 5.91,36.22 26.88,36.22 47.79,0 95.58,0 143.35,0 18.76,0 26.88,-5.6 26.88,-36.22l0 -125.27c0,-16.66 -3.59,-32.45 -24.08,-32.45l-148.4 0c-18.66,0 -24.64,7.68 -24.64,35.47l0.01 0zm69.7 103.16c5.8,0 10.5,4.79 10.5,10.7 0,5.91 -4.7,10.71 -10.5,10.71 -5.8,0 -10.49,-4.79 -10.49,-10.71 0,-5.91 4.7,-10.7 10.49,-10.7zm69.96 0c5.8,0 10.5,4.79 10.5,10.7 0,5.91 -4.7,10.71 -10.5,10.71 -5.8,0 -10.49,-4.79 -10.49,-10.71 0,-5.91 4.7,-10.7 10.49,-10.7zm-101.45 -104.74c-8.73,0 -10.25,13.99 0,13.99l8.67 0 18.09 67.25c2.15,8.03 4.74,9.71 12.95,9.71l53.53 0c8.84,0 10.51,-4.12 14.73,-11.44 6.38,-12.77 12.77,-25.54 19.15,-38.31 2.73,-10.19 -2.89,-20.22 -15.46,-20.22l-86.62 0c-1.35,-5.27 -2.71,-10.54 -4.06,-15.81 -1.11,-4.14 -5.6,-5.18 -10.16,-5.18l-10.83 0z"/>
 </g>
</svg>
