<?xml version="1.0" encoding="UTF-8"?>
<!DOCTYPE svg PUBLIC "-//W3C//DTD SVG 1.1//EN" "http://www.w3.org/Graphics/SVG/1.1/DTD/svg11.dtd">
<!-- Creator: CorelDRAW 2018 (64 Bit) -->
<svg xmlns="http://www.w3.org/2000/svg" xml:space="preserve" width="10.6856mm" height="10.621mm" version="1.1" style="shape-rendering:geometricPrecision; text-rendering:geometricPrecision; image-rendering:optimizeQuality; fill-rule:evenodd; clip-rule:evenodd"
viewBox="0 0 82.84 82.34"
 xmlns:xlink="http://www.w3.org/1999/xlink"
 role="img">
 <defs>
  <style type="text/css">
   <![CDATA[
    .fil0 {fill:#D2B367}
   ]]>
  </style>
 </defs>
 <g id="Capa_x0020_1">
  <metadata id="CorelCorpID_0Corel-Layer"/>
  <g id="facebook-svgrepo-com.svg">
   <path class="fil0" d="M82.84 41.42c0,-22.87 -18.55,-41.42 -41.42,-41.42 -22.87,0 -41.42,18.55 -41.42,41.42 0,20.68 15.15,37.81 34.95,40.92l0 -28.94 -10.52 0 0 -11.98 10.52 -0 0 -9.12c0,-10.38 6.18,-16.11 15.65,-16.11 4.53,0 9.27,0.81 9.27,0.81l0 10.19 -5.23 0c-5.15,0 -6.75,3.19 -6.75,6.47l0 7.77 11.49 0 -1.84 11.98 -9.65 0 0 28.94c19.81,-3.11 34.95,-20.25 34.95,-40.92z"/>
  </g>
 </g>
</svg>
