<?xml version="1.0" encoding="UTF-8"?>
<!DOCTYPE svg PUBLIC "-//W3C//DTD SVG 1.1//EN" "http://www.w3.org/Graphics/SVG/1.1/DTD/svg11.dtd">
<!-- Creator: CorelDRAW 2018 (64 Bit) -->
<svg xmlns="http://www.w3.org/2000/svg" xml:space="preserve" width="8.0594mm" height="7.5845mm" version="1.1" style="shape-rendering:geometricPrecision; text-rendering:geometricPrecision; image-rendering:optimizeQuality; fill-rule:evenodd; clip-rule:evenodd"
viewBox="0 0 54.6 51.38"
 xmlns:xlink="http://www.w3.org/1999/xlink">
 <defs>
  <style type="text/css">
   <![CDATA[
    .fil0 {fill:black}
   ]]>
  </style>
 </defs>
 <g id="Capa_x0020_1">
  <metadata id="CorelCorpID_0Corel-Layer"/>
  <g id="shopping-cart-empty-side-view-svgrepo-com.svg">
   <g>
    <path class="fil0" d="M54.28 9.79c-0.31,-0.45 -0.81,-0.72 -1.36,-0.75l-33.86 -1.46c-0.97,-0.04 -1.78,0.71 -1.83,1.68 -0.04,0.96 0.71,1.78 1.67,1.83l31.57 1.36 -6.21 19.37 -27.63 0 -4.99 -27.17c-0.11,-0.6 -0.52,-1.09 -1.08,-1.31l-8.17 -3.21c-0.9,-0.35 -1.92,0.09 -2.27,0.99 -0.35,0.9 0.09,1.92 0.99,2.27l7.27 2.86 5.08 27.65c0.15,0.83 0.88,1.43 1.72,1.43l0.84 0 -1.92 5.34c-0.16,0.45 -0.09,0.94 0.18,1.33 0.27,0.39 0.72,0.62 1.19,0.62l1.35 0c-0.83,0.93 -1.35,2.16 -1.35,3.5 0,2.9 2.36,5.26 5.26,5.26 2.9,0 5.26,-2.36 5.26,-5.26 0,-1.34 -0.51,-2.57 -1.35,-3.5l11.46 0c-0.83,0.93 -1.35,2.16 -1.35,3.5 0,2.9 2.36,5.26 5.26,5.26 2.9,0 5.26,-2.36 5.26,-5.26 0,-1.34 -0.51,-2.57 -1.35,-3.5l1.64 0c0.81,0 1.46,-0.65 1.46,-1.46 0,-0.81 -0.65,-1.46 -1.46,-1.46l-27.99 0 1.58 -4.38 26.42 0c0.76,0 1.44,-0.49 1.67,-1.22l7.3 -22.77c0.17,-0.52 0.08,-1.09 -0.23,-1.54l-0 -0.01 -0 -0.01zm-33.55 38.66c-1.29,0 -2.34,-1.05 -2.34,-2.34 0,-1.29 1.05,-2.34 2.34,-2.34 1.29,0 2.34,1.05 2.34,2.34 0,1.29 -1.05,2.34 -2.34,2.34zm19.27 0c-1.29,0 -2.34,-1.05 -2.34,-2.34 0,-1.29 1.05,-2.34 2.34,-2.34 1.29,0 2.34,1.05 2.34,2.34 0,1.29 -1.05,2.34 -2.34,2.34z"/>
   </g>
   <g>
   </g>
   <g>
   </g>
   <g>
   </g>
   <g>
   </g>
   <g>
   </g>
   <g>
   </g>
   <g>
   </g>
   <g>
   </g>
   <g>
   </g>
   <g>
   </g>
   <g>
   </g>
   <g>
   </g>
   <g>
   </g>
   <g>
   </g>
   <g>
   </g>
  </g>
 </g>
</svg>
