<?xml version="1.0" encoding="UTF-8"?>
<!DOCTYPE svg PUBLIC "-//W3C//DTD SVG 1.1//EN" "http://www.w3.org/Graphics/SVG/1.1/DTD/svg11.dtd">
<!-- Creator: CorelDRAW 2018 (64 Bit) -->
<svg xmlns="http://www.w3.org/2000/svg" xml:space="preserve" width="11.3894mm" height="8.1834mm" version="1.1" style="shape-rendering:geometricPrecision; text-rendering:geometricPrecision; image-rendering:optimizeQuality; fill-rule:evenodd; clip-rule:evenodd"
viewBox="0 0 364.32 261.77"
 xmlns:xlink="http://www.w3.org/1999/xlink">
 <defs>
  <style type="text/css">
   <![CDATA[
    .fil0 {fill:#D2B367}
   ]]>
  </style>
 </defs>
 <g id="Capa_x0020_1">
  <metadata id="CorelCorpID_0Corel-Layer"/>
  <g id="mail-svgrepo-com.svg">
   <path class="fil0" d="M364.32 18.58c0,-10.26 -8.32,-18.58 -18.58,-18.58l-327.15 0c-10.26,0 -18.58,8.32 -18.58,18.58l0 224.6c0,10.26 8.32,18.58 18.58,18.58l327.15 0c10.26,0 18.58,-8.32 18.58,-18.58l0 -224.6zm-37.17 37.85c0,5.47 -2.4,10.66 -6.56,14.21l-71.27 60.68 71.33 60.74c4.12,3.51 6.5,8.65 6.5,14.07 0,10.2 -8.27,18.47 -18.47,18.47l-0.16 0c-4.51,0 -8.88,-1.61 -12.32,-4.53l-75.55 -64.33 -26.44 22.52c-3.47,2.96 -7.76,4.43 -12.05,4.43 -4.29,0 -8.58,-1.48 -12.05,-4.43l-26.44 -22.52 -75.43 64.23c-3.51,2.99 -7.98,4.64 -12.6,4.64 -10.2,0 -18.47,-8.27 -18.47,-18.47 0,-5.42 2.37,-10.56 6.5,-14.07l71.33 -60.74 -70.28 -59.84c-4.79,-4.08 -7.55,-10.06 -7.55,-16.35 0,-9.93 8.04,-17.97 17.97,-17.97 4.27,0 8.4,1.52 11.65,4.29l109.5 93.23c3.38,2.88 8.36,2.88 11.75,0l109.5 -93.23c3.25,-2.77 7.38,-4.29 11.65,-4.29 9.93,0 17.97,8.04 17.97,17.97l0 1.3z"/>
   <g>
   </g>
   <g>
   </g>
   <g>
   </g>
   <g>
   </g>
   <g>
   </g>
   <g>
   </g>
   <g>
   </g>
   <g>
   </g>
   <g>
   </g>
   <g>
   </g>
   <g>
   </g>
   <g>
   </g>
   <g>
   </g>
   <g>
   </g>
   <g>
   </g>
  </g>
 </g>
</svg>
