<?xml version="1.0" encoding="UTF-8"?>
<!DOCTYPE svg PUBLIC "-//W3C//DTD SVG 1.1//EN" "http://www.w3.org/Graphics/SVG/1.1/DTD/svg11.dtd">
<!-- Creator: CorelDRAW 2018 (64 Bit) -->
<svg xmlns="http://www.w3.org/2000/svg" xml:space="preserve" width="13.822mm" height="13.5996mm" version="1.1" style="shape-rendering:geometricPrecision; text-rendering:geometricPrecision; image-rendering:optimizeQuality; fill-rule:evenodd; clip-rule:evenodd"
viewBox="0 0 210.61 207.23"
 xmlns:xlink="http://www.w3.org/1999/xlink">
 <defs>
  <style type="text/css">
   <![CDATA[
    .fil0 {fill:#D4B465}
   ]]>
  </style>
 </defs>
 <g id="Capa_x0020_1">
  <metadata id="CorelCorpID_0Corel-Layer"/>
  <path class="fil0" d="M-0 37.9l0 130.62c0,21.81 6.31,38.7 28.72,38.7 51.06,0 102.12,0 153.17,0 20.04,0 28.72,-5.98 28.72,-38.7l0 -133.85c0,-17.8 -3.84,-34.67 -25.73,-34.67l-158.56 0c-19.94,0 -26.33,8.21 -26.33,37.9zm171.64 65.72c0,8.26 -6.69,14.94 -14.94,14.94l-102.78 0c-8.25,0 -14.94,-6.69 -14.94,-14.94l0 0c0,-8.25 6.69,-14.94 14.94,-14.94l102.78 0c8.25,0 14.94,6.69 14.94,14.94l0 0z"/>
 </g>
</svg>
