<?xml version="1.0" encoding="UTF-8"?>
<!DOCTYPE svg PUBLIC "-//W3C//DTD SVG 1.1//EN" "http://www.w3.org/Graphics/SVG/1.1/DTD/svg11.dtd">
<!-- Creator: CorelDRAW 2018 (64 Bit) -->
<svg xmlns="http://www.w3.org/2000/svg" xml:space="preserve" width="15.0862mm" height="11.1594mm" version="1.1" style="shape-rendering:geometricPrecision; text-rendering:geometricPrecision; image-rendering:optimizeQuality; fill-rule:evenodd; clip-rule:evenodd"
viewBox="0 0 405.61 300.03"
 xmlns:xlink="http://www.w3.org/1999/xlink">
 <defs>
  <style type="text/css">
   <![CDATA[
    .fil0 {fill:#B53A4B}
   ]]>
  </style>
 </defs>
 <g id="Capa_x0020_1">
  <metadata id="CorelCorpID_0Corel-Layer"/>
  <path class="fil0" d="M8.54 134.2l0 0c-5.12,3.32 -8.54,9.14 -8.54,15.77 0,6.63 3.41,12.46 8.54,15.87l170.96 110.69c23,14.86 48.31,23.5 77.64,23.5 198,-0.23 197.9,-300.03 0,-300.03 -29.33,0 -54.65,8.64 -77.64,23.5l-170.96 110.69 0 0.01zm248.6 101.45c-47.31,0 -85.68,-38.37 -85.68,-85.68 0,-47.31 38.37,-85.68 85.68,-85.68 112.7,0 112.7,171.36 0,171.36l0 -0z"/>
 </g>
</svg>
