<?xml version="1.0" encoding="UTF-8"?>
<!DOCTYPE svg PUBLIC "-//W3C//DTD SVG 1.1//EN" "http://www.w3.org/Graphics/SVG/1.1/DTD/svg11.dtd">
<!-- Creator: CorelDRAW 2018 (64 Bit) -->
<svg xmlns="http://www.w3.org/2000/svg" xml:space="preserve" width="10.2858mm" height="9.6804mm" version="1.1" style="shape-rendering:geometricPrecision; text-rendering:geometricPrecision; image-rendering:optimizeQuality; fill-rule:evenodd; clip-rule:evenodd"
viewBox="0 0 179.69 169.12"
 xmlns:xlink="http://www.w3.org/1999/xlink">
 <defs>
  <style type="text/css">
   <![CDATA[
    .fil0 {fill:#69222B}
   ]]>
  </style>
 </defs>
 <g id="Capa_x0020_1">
  <metadata id="CorelCorpID_0Corel-Layer"/>
  <g id="shopping-cart-empty-side-view-svgrepo-com.svg">
   <g>
    <path class="fil0" d="M178.65 32.25c-1.03,-1.47 -2.68,-2.38 -4.48,-2.46l-111.46 -4.8c-3.2,-0.14 -5.87,2.33 -6.01,5.51 -0.14,3.18 2.33,5.87 5.51,6.01l103.92 4.48 -20.43 63.75 -90.93 0 -16.43 -89.44c-0.36,-1.96 -1.71,-3.6 -3.56,-4.32l-26.91 -10.57c-2.96,-1.16 -6.31,0.3 -7.48,3.26 -1.16,2.96 0.29,6.31 3.26,7.48l23.92 9.4 16.72 91.01c0.5,2.74 2.89,4.72 5.67,4.72l2.77 0 -6.33 17.59c-0.53,1.47 -0.31,3.11 0.59,4.39 0.9,1.28 2.37,2.04 3.93,2.04l4.44 0c-2.75,3.06 -4.44,7.1 -4.44,11.53 0,9.54 7.76,17.3 17.3,17.3 9.54,0 17.3,-7.76 17.3,-17.3 0,-4.43 -1.69,-8.47 -4.44,-11.53l37.71 0c-2.75,3.06 -4.44,7.1 -4.44,11.53 0,9.54 7.76,17.3 17.3,17.3 9.54,0 17.3,-7.76 17.3,-17.3 0,-4.43 -1.69,-8.47 -4.44,-11.53l5.4 0c2.65,0 4.8,-2.15 4.8,-4.8 0,-2.65 -2.15,-4.8 -4.8,-4.8l-92.14 0 5.19 -14.41 86.95 0c2.51,0 4.73,-1.62 5.49,-4.01l24.02 -74.95c0.55,-1.71 0.27,-3.58 -0.76,-5.06zm-110.43 127.25c-4.24,0 -7.69,-3.45 -7.69,-7.69 0,-4.24 3.45,-7.69 7.69,-7.69 4.24,0 7.69,3.45 7.69,7.69 0,4.24 -3.45,7.69 -7.69,7.69zm63.42 0c-4.24,0 -7.69,-3.45 -7.69,-7.69 0,-4.24 3.45,-7.69 7.69,-7.69 4.24,0 7.69,3.45 7.69,7.69 0,4.24 -3.45,7.69 -7.69,7.69z"/>
   </g>
   <g>
   </g>
   <g>
   </g>
   <g>
   </g>
   <g>
   </g>
   <g>
   </g>
   <g>
   </g>
   <g>
   </g>
   <g>
   </g>
   <g>
   </g>
   <g>
   </g>
   <g>
   </g>
   <g>
   </g>
   <g>
   </g>
   <g>
   </g>
   <g>
   </g>
  </g>
 </g>
</svg>
